<svg id="Camada_1-2" xmlns="http://www.w3.org/2000/svg" xmlns:xlink="http://www.w3.org/1999/xlink" width="225.712" height="35.275" viewBox="0 0 225.712 35.275">
  <defs>
    <linearGradient id="linear-gradient" x1="-0.127" y1="0.5" x2="7.839" y2="0.5" gradientUnits="objectBoundingBox">
      <stop offset="0" stop-color="#41e2b8"/>
      <stop offset="0.2" stop-color="#34acc3"/>
      <stop offset="0.38" stop-color="#2a81cd"/>
      <stop offset="0.47" stop-color="#2771d1"/>
      <stop offset="0.99" stop-color="#a32cd6"/>
    </linearGradient>
    <linearGradient id="linear-gradient-2" x1="-4.916" y1="0.5" x2="26.902" y2="0.5" xlink:href="#linear-gradient"/>
    <linearGradient id="linear-gradient-3" x1="-1.583" y1="0.5" x2="6.383" y2="0.5" xlink:href="#linear-gradient"/>
    <linearGradient id="linear-gradient-4" x1="-4.029" y1="0.5" x2="7.918" y2="0.5" xlink:href="#linear-gradient"/>
    <linearGradient id="linear-gradient-5" x1="-4.049" y1="0.5" x2="5.492" y2="0.5" xlink:href="#linear-gradient"/>
    <linearGradient id="linear-gradient-6" x1="-3.763" y1="0.5" x2="3.498" y2="0.5" xlink:href="#linear-gradient"/>
    <linearGradient id="linear-gradient-7" x1="-5.213" y1="0.5" x2="2.753" y2="0.5" xlink:href="#linear-gradient"/>
    <linearGradient id="linear-gradient-8" x1="-6.835" y1="0.5" x2="1.784" y2="0.5" xlink:href="#linear-gradient"/>
  </defs>
  <g id="Grupo_49" data-name="Grupo 49">
    <path id="Caminho_51" data-name="Caminho 51" d="M31.727,35.275H23.711L9.175,13.113A33.075,33.075,0,0,1,7.4,10.187H7.3c.132,1.244.2,3.151.2,5.706V35.275H0V0H8.559L22.553,21.474q.963,1.45,1.774,2.879h.1a37.39,37.39,0,0,1-.2-4.845V0h7.5Z" fill="url(#linear-gradient)"/>
    <path id="Caminho_52" data-name="Caminho 52" d="M60.843,35.275H52.9V0h7.943Z" transform="translate(-17.883)" fill="url(#linear-gradient-2)"/>
    <path id="Caminho_53" data-name="Caminho 53" d="M101.507,35.275H93.491L78.955,13.113a33.075,33.075,0,0,1-1.774-2.926h-.1c.132,1.244.2,3.151.2,5.706V35.275h-7.5V0h8.559L92.333,21.474q.963,1.45,1.774,2.879h.1a37.388,37.388,0,0,1-.2-4.845V0h7.5Z" transform="translate(-23.589)" fill="url(#linear-gradient-3)"/>
    <path id="Caminho_54" data-name="Caminho 54" d="M143.826,35.275H122.67V0h20.342V6.467h-12.4v7.844h11.538v6.447H130.613v8.069h13.206v6.447Z" transform="translate(-41.468)" fill="url(#linear-gradient-4)"/>
    <path id="Caminho_55" data-name="Caminho 55" d="M155.95,35.275V0h12.842q5.908,0,9.075,2.165a6.969,6.969,0,0,1,3.171,6.1,7.2,7.2,0,0,1-1.933,4.991,10.236,10.236,0,0,1-4.932,2.979v.1a9.782,9.782,0,0,1,6.017,2.78,7.772,7.772,0,0,1,2.251,5.633,9.417,9.417,0,0,1-3.469,7.685q-3.465,2.84-9.473,2.84Zm7.943-29.417v8.36h3.5a5.813,5.813,0,0,0,3.872-1.192,4.079,4.079,0,0,0,1.417-3.283q0-3.882-5.805-3.886h-2.979Zm0,14.265v9.3h4.3a6.617,6.617,0,0,0,4.316-1.278,4.285,4.285,0,0,0,1.562-3.5,3.909,3.909,0,0,0-1.536-3.323,6.776,6.776,0,0,0-4.289-1.2Z" transform="translate(-52.719)" fill="url(#linear-gradient-5)"/>
    <path id="Caminho_56" data-name="Caminho 56" d="M226.585,35.275h-8.658l-2.509-7.844H202.874l-2.482,7.844H191.78L204.622,0h9.42l12.544,35.275ZM213.6,21.328,209.812,9.473a15.417,15.417,0,0,1-.589-3.171h-.2a13.1,13.1,0,0,1-.616,3.071l-3.839,11.955Z" transform="translate(-64.831)" fill="url(#linear-gradient-6)"/>
    <path id="Caminho_57" data-name="Caminho 57" d="M275.517,35.275H267.5L252.965,13.113a33.072,33.072,0,0,1-1.774-2.926h-.1c.132,1.244.2,3.151.2,5.706V35.275h-7.5V0h8.559l13.994,21.474q.963,1.45,1.774,2.879h.1a37.386,37.386,0,0,1-.2-4.845V0h7.5V35.275Z" transform="translate(-82.413)" fill="url(#linear-gradient-7)"/>
    <path id="Caminho_58" data-name="Caminho 58" d="M326,35.275H315.963l-10.28-15.324a14.065,14.065,0,0,1-.933-1.946h-.126v17.27H296.68V0h7.943V16.675h.126c.2-.457.523-1.112.986-1.966L315.473,0h9.473l-12.3,16.827L326,35.275Z" transform="translate(-100.292)" fill="url(#linear-gradient-8)"/>
  </g>
</svg>
