<svg id="App_Store" data-name="App Store" xmlns="http://www.w3.org/2000/svg" width="146.714" height="42.384" viewBox="0 0 146.714 42.384">
  <path id="Caminho_59" data-name="Caminho 59" d="M148.084,39.64a4.131,4.131,0,0,1-4.178,4.088H7.183A4.137,4.137,0,0,1,3,39.64V7.037A4.142,4.142,0,0,1,7.183,2.943H143.905a4.136,4.136,0,0,1,4.178,4.094Z" transform="translate(-2.185 -2.144)" fill="#2a323b"/>
  <path id="Caminho_60" data-name="Caminho 60" d="M141.281.849A4.513,4.513,0,0,1,145.844,5.3V37.086a4.512,4.512,0,0,1-4.563,4.449H5.434A4.512,4.512,0,0,1,.871,37.086V5.3A4.513,4.513,0,0,1,5.434.849Zm0-.849H5.434A5.385,5.385,0,0,0,0,5.3V37.086a5.385,5.385,0,0,0,5.434,5.3H141.281a5.385,5.385,0,0,0,5.434-5.3V5.3A5.385,5.385,0,0,0,141.281,0Z" transform="translate(0 0)" fill="#a6a6a6"/>
  <path id="Caminho_61" data-name="Caminho 61" d="M70.008,56.1a6.134,6.134,0,0,1,3-5.154,6.51,6.51,0,0,0-5.082-2.679c-2.138-.219-4.211,1.247-5.3,1.247-1.111,0-2.788-1.226-4.595-1.19a6.79,6.79,0,0,0-5.695,3.386c-2.463,4.157-.626,10.265,1.733,13.625,1.18,1.646,2.559,3.483,4.364,3.418,1.766-.071,2.426-1.1,4.557-1.1,2.112,0,2.731,1.1,4.572,1.056,1.9-.03,3.089-1.653,4.228-3.313a13.445,13.445,0,0,0,1.933-3.839A5.963,5.963,0,0,1,70.008,56.1Z" transform="translate(-37.266 -35.138)" fill="#fff"/>
  <path id="Caminho_62" data-name="Caminho 62" d="M96.579,28.579A5.947,5.947,0,0,0,98,24.246a6.372,6.372,0,0,0-4.084,2.06,5.665,5.665,0,0,0-1.456,4.173A5.271,5.271,0,0,0,96.579,28.579Z" transform="translate(-67.314 -17.659)" fill="#fff"/>
  <path id="Caminho_63" data-name="Caminho 63" d="M180.544,30.051a3.436,3.436,0,0,1-1.15,2.816,4.655,4.655,0,0,1-3.025.873,14.379,14.379,0,0,1-1.666-.083V26.844a12.6,12.6,0,0,1,1.962-.144,4.3,4.3,0,0,1,2.815.792A3.16,3.16,0,0,1,180.544,30.051Zm-1.2.031a2.5,2.5,0,0,0-.659-1.861,2.636,2.636,0,0,0-1.925-.647,4.941,4.941,0,0,0-.917.072v5.18a6.166,6.166,0,0,0,.769.031,2.734,2.734,0,0,0,2.018-.709A2.8,2.8,0,0,0,179.343,30.082Z" transform="translate(-127.238 -19.445)" fill="#fff"/>
  <path id="Caminho_64" data-name="Caminho 64" d="M206.186,36.188a2.7,2.7,0,0,1-.675,1.891,2.439,2.439,0,0,1-1.877.761,2.318,2.318,0,0,1-1.8-.73,2.619,2.619,0,0,1-.668-1.839,2.673,2.673,0,0,1,.69-1.9,2.424,2.424,0,0,1,1.861-.74,2.373,2.373,0,0,1,1.814.729A2.6,2.6,0,0,1,206.186,36.188ZM205,36.224a2.215,2.215,0,0,0-.305-1.186,1.129,1.129,0,0,0-1.022-.6,1.148,1.148,0,0,0-1.044.6,2.244,2.244,0,0,0-.305,1.206,2.215,2.215,0,0,0,.305,1.186,1.154,1.154,0,0,0,1.034.6,1.141,1.141,0,0,0,1.022-.608A2.2,2.2,0,0,0,205,36.224Z" transform="translate(-146.512 -24.493)" fill="#fff"/>
  <path id="Caminho_65" data-name="Caminho 65" d="M231.163,34,229.56,39h-1.043l-.664-2.169a15.9,15.9,0,0,1-.412-1.614h-.021a11.572,11.572,0,0,1-.412,1.614L226.3,39h-1.055L223.74,34h1.17l.579,2.375q.21.842.348,1.6h.021q.127-.626.423-1.593l.727-2.384h.928l.7,2.333q.253.854.411,1.645h.032a15.364,15.364,0,0,1,.348-1.645l.622-2.333h1.118Z" transform="translate(-162.951 -24.765)" fill="#fff"/>
  <path id="Caminho_66" data-name="Caminho 66" d="M260.755,38.718h-1.139V35.857q0-1.322-1.032-1.322a1.039,1.039,0,0,0-.823.363,1.27,1.27,0,0,0-.316.856v2.963h-1.139V35.15q0-.658-.041-1.429h1l.053.781h.031a1.622,1.622,0,0,1,.59-.6,1.962,1.962,0,0,1,1.032-.281,1.658,1.658,0,0,1,1.192.452,2.166,2.166,0,0,1,.59,1.655v2.992Z" transform="translate(-186.639 -24.484)" fill="#fff"/>
  <path id="Caminho_67" data-name="Caminho 67" d="M281.3,32.855h-1.138V25.568H281.3Z" transform="translate(-204.045 -18.622)" fill="#fff"/>
  <path id="Caminho_68" data-name="Caminho 68" d="M295.582,36.188a2.7,2.7,0,0,1-.675,1.891,2.441,2.441,0,0,1-1.877.761,2.315,2.315,0,0,1-1.8-.73,2.619,2.619,0,0,1-.668-1.839,2.673,2.673,0,0,1,.69-1.9,2.424,2.424,0,0,1,1.859-.74,2.375,2.375,0,0,1,1.815.729A2.6,2.6,0,0,1,295.582,36.188Zm-1.182.036a2.215,2.215,0,0,0-.305-1.186,1.128,1.128,0,0,0-1.02-.6,1.145,1.145,0,0,0-1.044.6,2.245,2.245,0,0,0-.305,1.206,2.215,2.215,0,0,0,.305,1.186,1.154,1.154,0,0,0,1.034.6,1.139,1.139,0,0,0,1.02-.608A2.192,2.192,0,0,0,294.4,36.224Z" transform="translate(-211.62 -24.493)" fill="#fff"/>
  <path id="Caminho_69" data-name="Caminho 69" d="M318.046,38.726h-1.023l-.085-.575h-.031a1.771,1.771,0,0,1-1.5.689,1.565,1.565,0,0,1-1.169-.452,1.4,1.4,0,0,1-.4-1.017,1.543,1.543,0,0,1,.786-1.4,4.163,4.163,0,0,1,2.209-.473v-.093q0-.987-1.064-.986a2.428,2.428,0,0,0-1.336.37l-.231-.729a3.351,3.351,0,0,1,1.757-.431,1.8,1.8,0,0,1,2.011,2.066v1.839A7.607,7.607,0,0,0,318.046,38.726Zm-1.182-1.717v-.77q-1.884-.032-1.884,1.007a.742.742,0,0,0,.218.586.809.809,0,0,0,.556.195,1.17,1.17,0,0,0,.7-.231.944.944,0,0,0,.395-.591A.918.918,0,0,0,316.863,37.01Z" transform="translate(-228.572 -24.493)" fill="#fff"/>
  <path id="Caminho_70" data-name="Caminho 70" d="M340.03,32.855H339.02l-.053-.8h-.032a1.71,1.71,0,0,1-1.645.916,1.948,1.948,0,0,1-1.539-.709,2.717,2.717,0,0,1-.611-1.839,2.85,2.85,0,0,1,.664-1.963,2.064,2.064,0,0,1,1.581-.7,1.548,1.548,0,0,1,1.443.678h.022V25.568h1.14V31.51Q339.99,32.239,340.03,32.855Zm-1.18-2.106v-.833a1.592,1.592,0,0,0-.031-.35,1.259,1.259,0,0,0-.412-.673,1.137,1.137,0,0,0-.762-.272,1.178,1.178,0,0,0-1,.494,2.078,2.078,0,0,0-.365,1.264,1.937,1.937,0,0,0,.35,1.2,1.182,1.182,0,0,0,1,.493,1.109,1.109,0,0,0,.9-.411A1.348,1.348,0,0,0,338.85,30.749Z" transform="translate(-244.085 -18.622)" fill="#fff"/>
  <path id="Caminho_71" data-name="Caminho 71" d="M181.85,85.066h-2.468l-1.352-4.142h-4.7l-1.288,4.142h-2.4l4.656-14.1h2.876Zm-4.228-5.88L176.4,75.5q-.194-.564-.729-2.656h-.043q-.214.9-.687,2.656l-1.2,3.682Z" transform="translate(-123.55 -51.684)" fill="#fff"/>
  <path id="Caminho_72" data-name="Caminho 72" d="M231.727,89.841a5.69,5.69,0,0,1-1.438,4.1,4.255,4.255,0,0,1-3.2,1.339,3.222,3.222,0,0,1-2.961-1.443h-.043v5.356H221.77V88.229q0-1.631-.086-3.347h2.038l.129,1.612h.043a4.186,4.186,0,0,1,6.6-.4A5.511,5.511,0,0,1,231.727,89.841Zm-2.36.083a4.109,4.109,0,0,0-.687-2.448,2.391,2.391,0,0,0-2.017-1,2.447,2.447,0,0,0-1.555.554,2.562,2.562,0,0,0-.912,1.455,2.89,2.89,0,0,0-.108.689v1.7a2.677,2.677,0,0,0,.7,1.873,2.34,2.34,0,0,0,1.813.764,2.393,2.393,0,0,0,2.038-.983A4.25,4.25,0,0,0,229.366,89.923Z" transform="translate(-161.454 -61.668)" fill="#fff"/>
  <path id="Caminho_73" data-name="Caminho 73" d="M275.878,89.841a5.686,5.686,0,0,1-1.439,4.1,4.251,4.251,0,0,1-3.2,1.339,3.219,3.219,0,0,1-2.96-1.443h-.043v5.356h-2.317V88.229q0-1.631-.086-3.347h2.038L268,86.493h.043a4.187,4.187,0,0,1,6.6-.4A5.526,5.526,0,0,1,275.878,89.841Zm-2.36.083a4.109,4.109,0,0,0-.688-2.448,2.388,2.388,0,0,0-2.016-1,2.45,2.45,0,0,0-1.556.554,2.56,2.56,0,0,0-.911,1.455,2.946,2.946,0,0,0-.108.689v1.7a2.685,2.685,0,0,0,.7,1.873,2.345,2.345,0,0,0,1.815.764,2.393,2.393,0,0,0,2.038-.983A4.249,4.249,0,0,0,273.517,89.923Z" transform="translate(-193.61 -61.668)" fill="#fff"/>
  <path id="Caminho_74" data-name="Caminho 74" d="M328.1,80.557a3.715,3.715,0,0,1-1.285,2.929,5.788,5.788,0,0,1-3.94,1.235,7.038,7.038,0,0,1-3.748-.878l.537-1.883a6.473,6.473,0,0,0,3.349.9,3.224,3.224,0,0,0,2.04-.576,1.864,1.864,0,0,0,.728-1.541,1.939,1.939,0,0,0-.6-1.445,5.624,5.624,0,0,0-2-1.09q-3.8-1.381-3.8-4.043a3.541,3.541,0,0,1,1.331-2.849,5.337,5.337,0,0,1,3.541-1.11,7.171,7.171,0,0,1,3.282.67l-.579,1.842a5.813,5.813,0,0,0-2.768-.648,2.849,2.849,0,0,0-1.908.586,1.656,1.656,0,0,0-.579,1.277,1.707,1.707,0,0,0,.664,1.381,7.567,7.567,0,0,0,2.1,1.088,7.158,7.158,0,0,1,2.746,1.714A3.528,3.528,0,0,1,328.1,80.557Z" transform="translate(-232.426 -51.13)" fill="#fff"/>
  <path id="Caminho_75" data-name="Caminho 75" d="M363.327,80.345h-2.554v4.937q0,1.884,1.352,1.883a4.212,4.212,0,0,0,1.029-.105l.064,1.716a5.376,5.376,0,0,1-1.8.25,2.818,2.818,0,0,1-2.146-.816,3.938,3.938,0,0,1-.773-2.741V80.343h-1.521v-1.7H358.5V76.786l2.276-.67v2.531h2.554Z" transform="translate(-259.988 -55.436)" fill="#fff"/>
  <path id="Caminho_76" data-name="Caminho 76" d="M395.383,89.885a5.493,5.493,0,0,1-1.374,3.85,4.967,4.967,0,0,1-3.821,1.548,4.721,4.721,0,0,1-3.657-1.485,5.326,5.326,0,0,1-1.363-3.745,5.441,5.441,0,0,1,1.405-3.87,4.926,4.926,0,0,1,3.786-1.507,4.823,4.823,0,0,1,3.691,1.486A5.264,5.264,0,0,1,395.383,89.885Zm-2.4.073a4.484,4.484,0,0,0-.622-2.413,2.3,2.3,0,0,0-2.08-1.216,2.334,2.334,0,0,0-2.125,1.216A4.57,4.57,0,0,0,387.531,90a4.478,4.478,0,0,0,.622,2.412,2.4,2.4,0,0,0,4.184-.021A4.5,4.5,0,0,0,392.979,89.958Z" transform="translate(-280.52 -61.671)" fill="#fff"/>
  <path id="Caminho_77" data-name="Caminho 77" d="M435.527,86.868a4.124,4.124,0,0,0-.73-.063,2.209,2.209,0,0,0-1.889.9,3.324,3.324,0,0,0-.579,2.008V95.05h-2.316l.022-6.966q0-1.758-.087-3.2h2.018l.085,1.945h.064a3.48,3.48,0,0,1,1.159-1.611,2.849,2.849,0,0,1,1.675-.545,3.814,3.814,0,0,1,.579.041Z" transform="translate(-313.134 -61.668)" fill="#fff"/>
  <path id="Caminho_78" data-name="Caminho 78" d="M463.78,89.433a5.172,5.172,0,0,1-.085,1.025h-6.951a2.917,2.917,0,0,0,1.008,2.3,3.5,3.5,0,0,0,2.274.711,7.862,7.862,0,0,0,2.813-.481l.363,1.568a8.893,8.893,0,0,1-3.5.628A5.137,5.137,0,0,1,455.9,93.8a5.064,5.064,0,0,1-1.383-3.734,5.731,5.731,0,0,1,1.289-3.828,4.487,4.487,0,0,1,3.646-1.631,3.92,3.92,0,0,1,3.414,1.631A5.4,5.4,0,0,1,463.78,89.433Zm-2.209-.586a3.009,3.009,0,0,0-.45-1.737,2.038,2.038,0,0,0-1.846-.942,2.216,2.216,0,0,0-1.844.921,3.322,3.322,0,0,0-.686,1.757h4.826Z" transform="translate(-331.024 -61.617)" fill="#fff"/>
</svg>
