<svg id="Vector" xmlns="http://www.w3.org/2000/svg" width="147.506" height="42.613" viewBox="0 0 147.506 42.613">
  <path id="Caminho_79" data-name="Caminho 79" d="M142.043,42.613H5.463A5.414,5.414,0,0,1,0,37.286V5.327A5.414,5.414,0,0,1,5.463,0H142.043a5.414,5.414,0,0,1,5.463,5.327v31.96A5.414,5.414,0,0,1,142.043,42.613Z" fill="#2a323b"/>
  <path id="Caminho_80" data-name="Caminho 80" d="M142.043.854a4.537,4.537,0,0,1,4.588,4.473v31.96a4.537,4.537,0,0,1-4.588,4.473H5.463A4.537,4.537,0,0,1,.875,37.286V5.327A4.537,4.537,0,0,1,5.463.854Zm0-.854H5.463A5.414,5.414,0,0,0,0,5.327v31.96a5.414,5.414,0,0,0,5.463,5.327H142.043a5.414,5.414,0,0,0,5.463-5.327V5.327A5.414,5.414,0,0,0,142.043,0Z" fill="#a6a6a6"/>
  <path id="Caminho_81" data-name="Caminho 81" d="M40.392,29.2a2.088,2.088,0,0,0-.507,1.5v23.56a2.087,2.087,0,0,0,.507,1.5l.079.072,13.54-13.2v-.312l-13.54-13.2Z" transform="translate(-28.99 -21.164)" fill="#00d8ff"/>
  <path id="Caminho_82" data-name="Caminho 82" d="M96.108,70.431,91.6,66.03v-.312l4.514-4.4.1.057,5.346,2.966c1.526.842,1.526,2.227,0,3.073l-5.346,2.96Z" transform="translate(-66.579 -44.568)" fill="#ffc101"/>
  <path id="Caminho_83" data-name="Caminho 83" d="M59.975,82.5,55.36,78,41.74,91.28a1.814,1.814,0,0,0,2.273.063Z" transform="translate(-30.338 -56.694)" fill="#fa3647"/>
  <path id="Caminho_84" data-name="Caminho 84" d="M59.975,37.051,44.013,28.208a1.821,1.821,0,0,0-2.273.068L55.36,41.551Z" transform="translate(-30.338 -20.244)" fill="#00f076"/>
  <path id="Caminho_85" data-name="Caminho 85" d="M170.872,28.5a3.454,3.454,0,0,1-1.156,2.832,4.68,4.68,0,0,1-3.041.878A14.456,14.456,0,0,1,165,32.127V25.276a12.671,12.671,0,0,1,1.972-.145,4.328,4.328,0,0,1,2.83.8A3.177,3.177,0,0,1,170.872,28.5Zm-1.207.031A2.508,2.508,0,0,0,169,26.661a2.65,2.65,0,0,0-1.935-.651,4.967,4.967,0,0,0-.922.072v5.208a6.2,6.2,0,0,0,.774.031,2.749,2.749,0,0,0,2.029-.713A2.811,2.811,0,0,0,169.664,28.531Z" transform="translate(-119.929 -18.266)" fill="#fff"/>
  <path id="Caminho_86" data-name="Caminho 86" d="M196.509,34.633a2.713,2.713,0,0,1-.679,1.9,2.452,2.452,0,0,1-1.887.765,2.331,2.331,0,0,1-1.807-.734,2.633,2.633,0,0,1-.672-1.849,2.687,2.687,0,0,1,.694-1.911,2.437,2.437,0,0,1,1.871-.744,2.386,2.386,0,0,1,1.824.733A2.611,2.611,0,0,1,196.509,34.633Zm-1.188.036a2.227,2.227,0,0,0-.307-1.192,1.135,1.135,0,0,0-1.027-.6,1.154,1.154,0,0,0-1.05.6,2.257,2.257,0,0,0-.307,1.212,2.227,2.227,0,0,0,.307,1.192,1.161,1.161,0,0,0,1.039.6A1.147,1.147,0,0,0,195,35.871,2.213,2.213,0,0,0,195.321,34.669Z" transform="translate(-139.164 -23.304)" fill="#fff"/>
  <path id="Caminho_87" data-name="Caminho 87" d="M221.5,32.436l-1.612,5.022h-1.049l-.668-2.181a15.984,15.984,0,0,1-.414-1.622h-.021a11.631,11.631,0,0,1-.414,1.622l-.709,2.181h-1.061l-1.515-5.022h1.177l.582,2.387q.211.847.35,1.612h.021q.128-.63.425-1.6l.731-2.4h.933l.7,2.346q.254.858.413,1.653h.032a15.451,15.451,0,0,1,.35-1.653l.625-2.346H221.5Z" transform="translate(-155.57 -23.576)" fill="#fff"/>
  <path id="Caminho_88" data-name="Caminho 88" d="M251.075,37.177H249.93V34.3q0-1.33-1.038-1.33a1.045,1.045,0,0,0-.827.365,1.277,1.277,0,0,0-.318.861v2.979H246.6V33.59q0-.662-.042-1.437h1.006l.054.785h.032a1.632,1.632,0,0,1,.593-.606,1.973,1.973,0,0,1,1.038-.282,1.667,1.667,0,0,1,1.2.455,2.178,2.178,0,0,1,.593,1.664Z" transform="translate(-179.21 -23.295)" fill="#fff"/>
  <path id="Caminho_89" data-name="Caminho 89" d="M271.6,31.326H270.46V24H271.6Z" transform="translate(-196.581 -17.444)" fill="#fff"/>
  <path id="Caminho_90" data-name="Caminho 90" d="M285.9,34.633a2.713,2.713,0,0,1-.679,1.9,2.454,2.454,0,0,1-1.887.765,2.327,2.327,0,0,1-1.807-.734,2.633,2.633,0,0,1-.672-1.849,2.687,2.687,0,0,1,.694-1.911,2.437,2.437,0,0,1,1.87-.744,2.388,2.388,0,0,1,1.825.733A2.611,2.611,0,0,1,285.9,34.633Zm-1.189.036a2.227,2.227,0,0,0-.307-1.192,1.134,1.134,0,0,0-1.026-.6,1.151,1.151,0,0,0-1.05.6,2.257,2.257,0,0,0-.307,1.212,2.227,2.227,0,0,0,.307,1.192,1.161,1.161,0,0,0,1.039.6,1.145,1.145,0,0,0,1.026-.611A2.2,2.2,0,0,0,284.716,34.669Z" transform="translate(-204.141 -23.304)" fill="#fff"/>
  <path id="Caminho_91" data-name="Caminho 91" d="M308.365,37.186h-1.028l-.085-.578h-.032a1.78,1.78,0,0,1-1.5.692,1.574,1.574,0,0,1-1.176-.455,1.407,1.407,0,0,1-.4-1.023,1.552,1.552,0,0,1,.79-1.405,4.186,4.186,0,0,1,2.221-.475v-.094q0-.992-1.07-.992a2.441,2.441,0,0,0-1.343.372l-.233-.733a3.369,3.369,0,0,1,1.767-.434,1.812,1.812,0,0,1,2.021,2.077v1.849A7.65,7.65,0,0,0,308.365,37.186Zm-1.189-1.726v-.774q-1.895-.032-1.895,1.012a.746.746,0,0,0,.22.589.813.813,0,0,0,.559.2,1.176,1.176,0,0,0,.7-.232.95.95,0,0,0,.4-.594A.922.922,0,0,0,307.176,35.46Z" transform="translate(-221.059 -23.304)" fill="#fff"/>
  <path id="Caminho_92" data-name="Caminho 92" d="M330.353,31.326h-1.016l-.054-.806h-.032a1.72,1.72,0,0,1-1.654.92,1.958,1.958,0,0,1-1.547-.713,2.731,2.731,0,0,1-.614-1.849A2.865,2.865,0,0,1,326.1,26.9a2.075,2.075,0,0,1,1.59-.7,1.557,1.557,0,0,1,1.451.682h.022V24h1.146v5.973Q330.312,30.707,330.353,31.326Zm-1.187-2.118v-.837a1.6,1.6,0,0,0-.032-.352,1.266,1.266,0,0,0-.414-.676,1.143,1.143,0,0,0-.766-.274,1.185,1.185,0,0,0-1.007.5,2.089,2.089,0,0,0-.367,1.271,1.948,1.948,0,0,0,.352,1.209,1.188,1.188,0,0,0,1,.5,1.114,1.114,0,0,0,.9-.413A1.355,1.355,0,0,0,329.166,29.208Z" transform="translate(-236.54 -17.444)" fill="#fff"/>
  <path id="Caminho_93" data-name="Caminho 93" d="M193.765,71.494a4.533,4.533,0,1,0,4.668,4.531A4.526,4.526,0,0,0,193.765,71.494Zm0,7.278a2.749,2.749,0,1,1,2.625-2.746A2.649,2.649,0,0,1,193.765,78.772Zm-10.174-7.278a4.533,4.533,0,1,0,4.663,4.531A4.522,4.522,0,0,0,183.591,71.494Zm0,7.278a2.75,2.75,0,1,1,2.62-2.746A2.653,2.653,0,0,1,183.591,78.772Zm-12.106-5.889v1.926H176.2a3.951,3.951,0,0,1-1.072,2.418,4.908,4.908,0,0,1-3.644,1.4,5.114,5.114,0,1,1,3.554-8.854l1.392-1.357a6.972,6.972,0,0,0-4.946-1.94,7.043,7.043,0,1,0,0,14.075,6.685,6.685,0,0,0,5.037-1.976,6.783,6.783,0,0,0,1.6-5.7Zm49.5,1.493a4.3,4.3,0,0,0-3.98-2.882,4.357,4.357,0,0,0-4.38,4.531,4.49,4.49,0,0,0,4.61,4.53,4.634,4.634,0,0,0,3.873-2.008l-1.584-1.03a2.671,2.671,0,0,1-2.289,1.253,2.369,2.369,0,0,1-2.251-1.373l6.216-2.508Zm-6.337,1.509a2.515,2.515,0,0,1,2.427-2.642,1.813,1.813,0,0,1,1.729.961Zm-5.052,4.4h2.043V66.964H209.6ZM206.254,72.5h-.068a3.258,3.258,0,0,0-2.443-1.009,4.532,4.532,0,0,0,0,9.062,3.209,3.209,0,0,0,2.443-1.029h.068v.65a2.348,2.348,0,0,1-2.48,2.663,2.575,2.575,0,0,1-2.342-1.618l-1.777.723a4.432,4.432,0,0,0,4.119,2.679c2.4,0,4.417-1.374,4.417-4.718V71.77h-1.937Zm-2.337,6.268a2.752,2.752,0,0,1,0-5.493,2.761,2.761,0,0,1,0,5.493Zm26.638-11.808h-4.887V80.28h2.038V75.235h2.849a4.149,4.149,0,1,0,0-8.271Zm.053,6.419h-2.9V68.816h2.9a2.286,2.286,0,1,1,0,4.566Zm12.6-1.914a3.84,3.84,0,0,0-3.633,2.039l1.808.739a2.224,2.224,0,0,1,4.007.734v.14a4.568,4.568,0,0,0-2.129-.515c-1.948,0-3.932,1.045-3.932,3a3.125,3.125,0,0,0,3.389,2.933,2.9,2.9,0,0,0,2.6-1.3h.07v1.029h1.968V75.151C247.356,72.79,245.548,71.469,243.205,71.469Zm-.246,7.3c-.667,0-1.6-.322-1.6-1.128,0-1.031,1.158-1.426,2.161-1.426a3.73,3.73,0,0,1,1.863.447A2.453,2.453,0,0,1,242.96,78.766Zm11.567-7.006-2.342,5.773h-.07l-2.422-5.773h-2.2l3.639,8.067-2.076,4.489h2.129l5.607-12.556Zm-18.369,8.52H238.2V66.964h-2.043Z" transform="translate(-119.318 -48.321)" fill="#fff"/>
</svg>
