<svg xmlns="http://www.w3.org/2000/svg" xmlns:xlink="http://www.w3.org/1999/xlink" width="58" height="58" viewBox="0 0 58 58">
  <defs>
    <filter id="Elipse_4" x="0" y="0" width="58" height="58" filterUnits="userSpaceOnUse">
      <feOffset dx="5" dy="5" input="SourceAlpha"/>
      <feGaussianBlur stdDeviation="3" result="blur"/>
      <feFlood flood-opacity="0.161"/>
      <feComposite operator="in" in2="blur"/>
      <feComposite in="SourceGraphic"/>
    </filter>
  </defs>
  <g id="In" transform="translate(4 4)">
    <g transform="matrix(1, 0, 0, 1, -4, -4)" filter="url(#Elipse_4)">
      <circle id="Elipse_4-2" data-name="Elipse 4" cx="20" cy="20" r="20" transform="translate(4 4)" fill="#343d47"/>
    </g>
    <path id="Icon_awesome-linkedin-in" data-name="Icon awesome-linkedin-in" d="M4.477,20H.33V6.648H4.477ZM2.4,4.826A2.413,2.413,0,1,1,4.8,2.4,2.422,2.422,0,0,1,2.4,4.826ZM20,20H15.858V13.5c0-1.549-.031-3.536-2.156-3.536-2.156,0-2.486,1.683-2.486,3.424V20H7.074V6.648h3.977V8.469h.058a4.357,4.357,0,0,1,3.923-2.156c4.2,0,4.968,2.763,4.968,6.353V20Z" transform="translate(10 8.999)" fill="#fff"/>
  </g>
</svg>
