<svg xmlns="http://www.w3.org/2000/svg" width="20" height="27" viewBox="0 0 15.385 24.616">
  <g id="phone" transform="translate(-6.75)">
    <path id="Caminho_35" data-name="Caminho 35" d="M19.058,1.539H9.827A1.539,1.539,0,0,0,8.289,3.077V21.539a1.539,1.539,0,0,0,1.539,1.539h9.231A1.539,1.539,0,0,0,20.6,21.539V3.077A1.539,1.539,0,0,0,19.058,1.539ZM9.827,0A3.077,3.077,0,0,0,6.75,3.077V21.539a3.077,3.077,0,0,0,3.077,3.077h9.231a3.077,3.077,0,0,0,3.077-3.077V3.077A3.077,3.077,0,0,0,19.058,0Z" fill="#3966D1" fill-rule="evenodd"/>
    <path id="Caminho_36" data-name="Caminho 36" d="M17.289,30.077a1.539,1.539,0,1,0-1.539-1.539A1.539,1.539,0,0,0,17.289,30.077Z" transform="translate(-2.846 -8.538)" fill="#3966D1" fill-rule="evenodd"/>
  </g>
</svg>
