<svg xmlns="http://www.w3.org/2000/svg" width="26.186" height="26.239" viewBox="0 0 26.186 26.239">
  <g id="pix" transform="translate(-126.5 -141.9)">
    <path id="Caminho_40" data-name="Caminho 40" d="M126.5,291.069a3.109,3.109,0,0,0,.974,1.968c.994,1.02,2.009,2.025,3.009,3.035a.33.33,0,0,0,.277.092c.425,0,.856-.01,1.281,0a2.851,2.851,0,0,0,2.2-.9c1.23-1.246,2.471-2.476,3.711-3.711a1.925,1.925,0,0,1,2.881,0q1.876,1.868,3.747,3.747a2.722,2.722,0,0,0,1.979.871c.6,0,1.194-.005,1.794.005a.419.419,0,0,0,.328-.154l2.753-2.753a4.391,4.391,0,0,0,.892-1.266,4.284,4.284,0,0,0,.349-1.164,3.974,3.974,0,0,0-.031-.866c-.005-.031-.005-.062-.01-.092a3.657,3.657,0,0,0-1-2.168c-.989-1.025-2-2.025-3.009-3.04a.375.375,0,0,0-.3-.1c-.528,0-1.061.015-1.589,0a2.857,2.857,0,0,0-2.2.918c-1.225,1.24-2.46,2.466-3.7,3.7a2.457,2.457,0,0,1-.343.308,1.874,1.874,0,0,1-2.491-.236c-1.292-1.281-2.573-2.573-3.86-3.855a2.573,2.573,0,0,0-1.471-.769,16.6,16.6,0,0,0-2.02-.046c-.1-.005-.149.072-.21.128-.943.943-1.886,1.881-2.824,2.829a3.223,3.223,0,0,0-.994,1.62m9.949,1.42c-1.123,1.1-2.24,2.2-3.332,3.332a1.556,1.556,0,0,1-1.456.574c-.379.118-.625-.082-.877-.343-.666-.7-1.363-1.369-2.045-2.05a2.333,2.333,0,0,1-.005-3.445c.753-.759,1.512-1.507,2.261-2.266a.582.582,0,0,1,.379-.164,2.134,2.134,0,0,1,1.938.784c1,1.082,2.076,2.107,3.127,3.142C136.731,290.32,136.752,290.407,136.572,290.587Zm13.7,1.5c-.764.769-1.533,1.533-2.3,2.3a.412.412,0,0,1-.333.144c-.323-.01-.646-.01-.974,0a1.161,1.161,0,0,1-.871-.359c-1.22-1.22-2.435-2.44-3.66-3.655-.118-.118-.092-.179.01-.282q1.822-1.815,3.639-3.639a1.68,1.68,0,0,1,.892-.369c.149-.036.292-.061.436-.082a1.359,1.359,0,0,1,1.235.589c.615.661,1.276,1.281,1.912,1.927A2.326,2.326,0,0,1,150.269,292.084Z" transform="translate(0 -135.36)" fill="#3966D1"/>
    <path id="Caminho_41" data-name="Caminho 41" d="M244.97,435.719a4.1,4.1,0,0,1-3.209-1.317c-1.194-1.23-2.419-2.43-3.634-3.645a.781.781,0,0,0-1.281.005q-1.868,1.861-3.732,3.732a3.865,3.865,0,0,1-2.635,1.2,1.635,1.635,0,0,0-.579.062c.051.056.082.1.118.133q2.4,2.4,4.8,4.8a4.259,4.259,0,0,0,1.215.841c.359.169.748.21,1.107.349h.974c.021-.015.036-.041.056-.041a4.116,4.116,0,0,0,2.466-1.292c1.528-1.538,3.065-3.065,4.6-4.6a.5.5,0,0,0,.169-.215C245.257,435.719,245.114,435.713,244.97,435.719Zm-3.024,1.164c-.876.871-1.748,1.753-2.63,2.624a2.233,2.233,0,0,1-1.656.687,2.2,2.2,0,0,1-1.64-.661c-.928-.917-1.845-1.845-2.773-2.768-.113-.113-.128-.174.021-.261a5.969,5.969,0,0,0,1.158-.964c.964-.969,1.932-1.927,2.891-2.9.149-.149.22-.128.359.005,1,1.015,2.014,2.02,3.019,3.024a5.416,5.416,0,0,0,1.225.958C242.079,436.718,242.053,436.774,241.946,436.882Z" transform="translate(-98.1 -273.735)" fill="#3966D1"/>
    <path id="Caminho_42" data-name="Caminho 42" d="M245.519,147.918q-2.414-2.414-4.839-4.834a3.923,3.923,0,0,0-1.522-.959c-.261-.087-.533-.154-.8-.226h-1.076c-.026.062-.082.051-.128.062a4.266,4.266,0,0,0-2.271,1.246c-1.533,1.548-3.076,3.081-4.613,4.618-.061.062-.154.108-.169.21a.351.351,0,0,0,.051.021h.128a4.108,4.108,0,0,1,3.137,1.312c1.189,1.225,2.409,2.419,3.619,3.624a.769.769,0,0,0,1.292.005c1.225-1.225,2.455-2.445,3.675-3.68a3.951,3.951,0,0,1,2.481-1.246c.369-.036.738-.005,1.174-.005A1.891,1.891,0,0,1,245.519,147.918Zm-3.419-.779a5.524,5.524,0,0,0-1.2.948c-1,1-2.009,2-3,3.009-.154.159-.241.185-.41.01-.974-.994-1.963-1.968-2.947-2.958a6.032,6.032,0,0,0-1.066-.877c-.123-.077-.174-.133-.041-.261.938-.933,1.871-1.871,2.814-2.8a2.2,2.2,0,0,1,1.5-.641,2.276,2.276,0,0,1,1.743.661c.892.882,1.774,1.774,2.665,2.655C242.274,147.016,242.233,147.062,242.1,147.139Z" transform="translate(-98.29)" fill="#3966D1"/>
  </g>
</svg>
